<svg xmlns="http://www.w3.org/2000/svg" viewBox="0 0 256 256">
  <defs>
    <linearGradient id="bg" x1="0" y1="0" x2="1" y2="1">
      <stop offset="0" stop-color="#c9b07a"/>
      <stop offset="1" stop-color="#8d6d42"/>
    </linearGradient>
    <linearGradient id="screen" x1="0" y1="0" x2="0" y2="1">
      <stop offset="0" stop-color="#203f2f"/>
      <stop offset="1" stop-color="#0d1712"/>
    </linearGradient>
    <linearGradient id="bezel" x1="0" y1="0" x2="0" y2="1">
      <stop offset="0" stop-color="#f1e1bb"/>
      <stop offset="1" stop-color="#b39160"/>
    </linearGradient>
    <filter id="glow" x="-20%" y="-20%" width="140%" height="140%">
      <feGaussianBlur stdDeviation="3" result="blur"/>
      <feMerge>
        <feMergeNode in="blur"/>
        <feMergeNode in="SourceGraphic"/>
      </feMerge>
    </filter>
  </defs>

  <rect width="256" height="256" rx="52" fill="url(#bg)"/>
  <rect x="44" y="46" width="168" height="122" rx="14" fill="url(#bezel)" stroke="#5c4225" stroke-width="6"/>
  <rect x="60" y="62" width="136" height="90" rx="8" fill="url(#screen)" stroke="#2c251b" stroke-width="4"/>
  <rect x="66" y="68" width="124" height="78" rx="5" fill="#122118"/>
  <path d="M128 168h24l14 26H90l14-26z" fill="#e4c996" stroke="#5c4225" stroke-width="6" stroke-linejoin="round"/>
  <rect x="72" y="194" width="112" height="20" rx="8" fill="#e4c996" stroke="#5c4225" stroke-width="6"/>

  <path d="M88 96l14 12-14 12" fill="none" stroke="#81f495" stroke-width="8" stroke-linecap="round" stroke-linejoin="round" filter="url(#glow)"/>
  <path d="M122 120h24" fill="none" stroke="#81f495" stroke-width="8" stroke-linecap="round" filter="url(#glow)"/>
  <text x="124" y="102" fill="#b2ffbf" font-family="monospace" font-size="28" font-weight="700" filter="url(#glow)">C</text>
  <circle cx="182" cy="176" r="4" fill="#7f6745"/>
  <circle cx="194" cy="176" r="4" fill="#7f6745"/>
</svg>
